<?xml version="1.0" encoding="UTF-8" standalone="no"?>
<!-- Created with Inkscape (http://www.inkscape.org/) -->

<svg
   xmlns:dc="http://purl.org/dc/elements/1.1/"
   xmlns:cc="http://creativecommons.org/ns#"
   xmlns:rdf="http://www.w3.org/1999/02/22-rdf-syntax-ns#"
   xmlns:svg="http://www.w3.org/2000/svg"
   xmlns="http://www.w3.org/2000/svg"
   xmlns:sodipodi="http://sodipodi.sourceforge.net/DTD/sodipodi-0.dtd"
   xmlns:inkscape="http://www.inkscape.org/namespaces/inkscape"
   width="16"
   height="16"
   viewBox="0 0 4.2333332 4.2333335"
   version="1.1"
   id="svg8"
   inkscape:export-filename="G:\DEVELOPMENT\MAIN_DEVELOPMENT\MAIN\lib\data\icons\menu_icons\Create_From_Clipboard.png"
   inkscape:export-xdpi="96.000008"
   inkscape:export-ydpi="96.000008"
   inkscape:version="0.92.3 (2405546, 2018-03-11)"
   sodipodi:docname="CreateFromClipboard.svg">
  <defs
     id="defs2" />
  <sodipodi:namedview
     id="base"
     pagecolor="#ffffff"
     bordercolor="#666666"
     borderopacity="1.0"
     inkscape:pageopacity="0.0"
     inkscape:pageshadow="2"
     inkscape:zoom="31.678384"
     inkscape:cx="11.509798"
     inkscape:cy="8.0602485"
     inkscape:document-units="mm"
     inkscape:current-layer="layer1"
     showgrid="false"
     units="px"
     inkscape:window-width="1920"
     inkscape:window-height="1030"
     inkscape:window-x="-8"
     inkscape:window-y="-8"
     inkscape:window-maximized="1" />
  <metadata
     id="metadata5">
    <rdf:RDF>
      <cc:Work
         rdf:about="">
        <dc:format>image/svg+xml</dc:format>
        <dc:type
           rdf:resource="http://purl.org/dc/dcmitype/StillImage" />
        <dc:title></dc:title>
      </cc:Work>
    </rdf:RDF>
  </metadata>
  <g
     inkscape:label="Layer 1"
     inkscape:groupmode="layer"
     id="layer1"
     transform="translate(0,-292.76665)">
    <rect
       style="fill:#ffffff;stroke:none;stroke-width:0.2971985"
       id="rect73"
       width="2.5105512"
       height="2.3335903"
       x="0.51655275"
       y="293.61172" />
    <rect
       style="fill:#ffffff;stroke:none;stroke-width:0.39234692"
       id="rect75"
       width="2.1117227"
       height="2.4130545"
       x="1.6734545"
       y="294.2995" />
    <g
       id="g71"
       transform="matrix(0.00746698,0,0,0.00778624,0.10484185,292.86428)"
       style="fill:#4d4d4d">
      <g
         id="icomoon-ignore"
         style="fill:#4d4d4d" />
      <path
         id="path59"
         d="M 352,64 H 288 V 32 C 288,14.4 273.6,0 256,0 H 192 C 174.398,0 160,14.4 160,32 V 64 H 96 v 64 h 256 z m -96,0 H 192 V 32.057 c 0.017,-0.019 0.036,-0.039 0.057,-0.057 h 63.884 c 0.021,0.018 0.041,0.038 0.059,0.057 z m 160,96 V 80 c 0,-8.8 -7.2,-16 -16,-16 h -32 v 32 h 16 v 64 h -96 l -96,96 V 384 H 64 V 96 H 80 V 64 H 48 c -8.801,0 -16,7.2 -16,16 v 320 c 0,8.8 7.199,16 16,16 h 144 v 96 H 512 V 160 Z M 288,205.255 V 256 H 237.255 Z M 480,480 H 224 V 288 h 96 v -96 h 160 z"
         inkscape:connector-curvature="0"
         style="fill:#4d4d4d" />
    </g>
  </g>
</svg>
