<?xml version="1.0" encoding="UTF-8" standalone="no"?>
<!-- Created with Inkscape (http://www.inkscape.org/) -->

<svg
   xmlns:dc="http://purl.org/dc/elements/1.1/"
   xmlns:cc="http://creativecommons.org/ns#"
   xmlns:rdf="http://www.w3.org/1999/02/22-rdf-syntax-ns#"
   xmlns:svg="http://www.w3.org/2000/svg"
   xmlns="http://www.w3.org/2000/svg"
   xmlns:sodipodi="http://sodipodi.sourceforge.net/DTD/sodipodi-0.dtd"
   xmlns:inkscape="http://www.inkscape.org/namespaces/inkscape"
   width="16"
   height="16"
   viewBox="0 0 4.2333332 4.2333335"
   version="1.1"
   id="svg8"
   inkscape:export-filename="G:\DEVELOPMENT\MAIN_DEVELOPMENT\MAIN\lib\data\icons\menus\Enhance.png"
   inkscape:export-xdpi="96.000008"
   inkscape:export-ydpi="96.000008"
   inkscape:version="0.92.3 (2405546, 2018-03-11)"
   sodipodi:docname="Enhance_Tool.svg">
  <defs
     id="defs2" />
  <sodipodi:namedview
     id="base"
     pagecolor="#ffffff"
     bordercolor="#666666"
     borderopacity="1.0"
     inkscape:pageopacity="0.0"
     inkscape:pageshadow="2"
     inkscape:zoom="31.678384"
     inkscape:cx="8.9542266"
     inkscape:cy="8.1907338"
     inkscape:document-units="mm"
     inkscape:current-layer="layer1"
     showgrid="false"
     units="px"
     inkscape:window-width="1920"
     inkscape:window-height="1030"
     inkscape:window-x="-8"
     inkscape:window-y="-8"
     inkscape:window-maximized="1" />
  <metadata
     id="metadata5">
    <rdf:RDF>
      <cc:Work
         rdf:about="">
        <dc:format>image/svg+xml</dc:format>
        <dc:type
           rdf:resource="http://purl.org/dc/dcmitype/StillImage" />
        <dc:title></dc:title>
      </cc:Work>
    </rdf:RDF>
  </metadata>
  <g
     inkscape:label="Layer 1"
     inkscape:groupmode="layer"
     id="layer1"
     transform="translate(0,-292.76665)">
    <g
       id="Page-1"
       transform="matrix(0.18523769,0,0,0.18523768,0.24409259,292.99282)"
       style="fill:#666666;fill-rule:evenodd;stroke:none;stroke-width:1">
      <g
         transform="translate(-420,-4359)"
         id="Dribbble-Light-Preview"
         style="fill:#666666">
        <g
           transform="translate(56,160)"
           id="icons"
           style="fill:#666666">
          <path
             id="brightness-[#861]"
             d="m 378.2426,4213.2426 c -0.39,0.391 1.024,2.438 1.414,2.828 0.391,0.391 1.024,0.391 1.414,0 0.391,-0.39 0.391,-1.023 0,-1.414 -0.39,-0.39 -2.437,-1.805 -2.828,-1.414 m -11.314,-11.314 c -0.39,0.391 -0.39,1.024 0,1.415 0.391,0.39 2.438,1.804 2.829,1.414 0.39,-0.391 -1.024,-2.438 -1.414,-2.829 -0.391,-0.39 -1.024,-0.39 -1.415,0 m 0,12.728 c -0.39,0.391 -0.39,1.024 0,1.414 0.391,0.391 1.024,0.391 1.415,0 0.39,-0.39 1.804,-2.437 1.414,-2.828 -0.391,-0.391 -2.438,1.024 -2.829,1.414 m 14.142,-11.313 c 0.391,-0.391 0.391,-1.024 0,-1.415 -0.39,-0.39 -1.023,-0.39 -1.414,0 -0.39,0.391 -1.804,2.438 -1.414,2.829 0.391,0.39 2.438,-1.024 2.828,-1.414 m -7.071,11.656 c -0.552,0 -1,2.448 -1,3 0,0.553 0.448,1 1,1 0.553,0 1,-0.447 1,-1 0,-0.552 -0.447,-3 -1,-3 m 0,-12 c 0.553,0 1,-2.447 1,-3 0,-0.552 -0.447,-1 -1,-1 -0.552,0 -1,0.448 -1,1 0,0.553 0.448,3 1,3 m 9,5 c -0.552,0 -3,0.448 -3,1 0,0.553 2.448,1 3,1 0.553,0 1,-0.447 1,-1 0,-0.552 -0.447,-1 -1,-1 m -15,1 c 0,-0.552 -2.447,-1 -3,-1 -0.552,0 -1,0.448 -1,1 0,0.553 0.448,1 1,1 0.553,0 3,-0.447 3,-1 m 10,0 c 0,2.209 -1.79,4 -4,4 -2.209,0 -4,-1.791 -4,-4 0,-2.209 1.791,-4 4,-4 2.21,0 4,1.791 4,4"
             inkscape:connector-curvature="0"
             style="fill:#666666" />
        </g>
      </g>
    </g>
  </g>
</svg>
