<?xml version="1.0" encoding="UTF-8" standalone="no"?>
<!-- Created with Inkscape (http://www.inkscape.org/) -->

<svg
   xmlns:dc="http://purl.org/dc/elements/1.1/"
   xmlns:cc="http://creativecommons.org/ns#"
   xmlns:rdf="http://www.w3.org/1999/02/22-rdf-syntax-ns#"
   xmlns:svg="http://www.w3.org/2000/svg"
   xmlns="http://www.w3.org/2000/svg"
   xmlns:sodipodi="http://sodipodi.sourceforge.net/DTD/sodipodi-0.dtd"
   xmlns:inkscape="http://www.inkscape.org/namespaces/inkscape"
   width="16"
   height="16"
   viewBox="0 0 4.2333332 4.2333334"
   version="1.1"
   id="svg8"
   inkscape:version="0.92.3 (2405546, 2018-03-11)"
   sodipodi:docname="Normal_Map.svg"
   inkscape:export-filename="G:\DEVELOPMENT\MAIN_DEVELOPMENT\MAIN\lib\data\icons\menu_icons\Generate_NormalMap.png"
   inkscape:export-xdpi="96.000008"
   inkscape:export-ydpi="96.000008">
  <defs
     id="defs2" />
  <sodipodi:namedview
     id="base"
     pagecolor="#ffffff"
     bordercolor="#666666"
     borderopacity="1.0"
     inkscape:pageopacity="0.0"
     inkscape:pageshadow="2"
     inkscape:zoom="63.356768"
     inkscape:cx="7.8175259"
     inkscape:cy="10.597228"
     inkscape:document-units="mm"
     inkscape:current-layer="g118"
     showgrid="false"
     units="px"
     inkscape:window-width="1920"
     inkscape:window-height="1030"
     inkscape:window-x="-8"
     inkscape:window-y="-8"
     inkscape:window-maximized="1" />
  <metadata
     id="metadata5">
    <rdf:RDF>
      <cc:Work
         rdf:about="">
        <dc:format>image/svg+xml</dc:format>
        <dc:type
           rdf:resource="http://purl.org/dc/dcmitype/StillImage" />
        <dc:title></dc:title>
      </cc:Work>
    </rdf:RDF>
  </metadata>
  <g
     inkscape:label="Layer 1"
     inkscape:groupmode="layer"
     id="layer1"
     transform="translate(0,-292.76665)">
    <g
       id="g118"
       transform="matrix(0.00835259,0,0,0.00659488,-0.8474623,293.65151)">
      <g
         id="icomoon-ignore" />
      <path
         id="path100"
         d="m 575.66429,228.23483 h -15.22732 v -18.16638 c 0,-9.9915 -6.8523,-18.16638 -15.22735,-18.16638 H 332.027 c -8.37505,0 -15.22734,8.17488 -15.22734,18.16638 v 217.99648 c 0,9.99151 6.85229,18.16638 15.22734,18.16638 h 15.22732 v 18.16637 c 0,9.9915 6.85229,18.16637 15.22733,18.16637 h 213.18264 c 8.37504,0 15.22733,-8.17487 15.22733,-18.16637 V 246.4012 c 0,-9.9915 -6.85229,-18.16637 -15.22733,-18.16637 z M 347.25432,246.4012 v 181.66373 h -15.20021 c -0.009,-0.0101 -0.0195,-0.0217 -0.0271,-0.0329 V 210.10081 c 0.008,-0.0113 0.018,-0.0233 0.0271,-0.0324 h 213.12792 c 0.0104,0.0101 0.0195,0.0216 0.0277,0.0329 v 18.13345 H 362.48165 c -8.37504,0 -15.22733,8.17487 -15.22733,18.16636 z m 228.40997,217.96355 c -0.008,0.0112 -0.018,0.0233 -0.0276,0.0329 H 362.50877 c -0.0104,-0.009 -0.0195,-0.0217 -0.0271,-0.0329 v -217.9312 c 0.008,-0.0113 0.018,-0.0233 0.0271,-0.0324 H 575.6367 c 0.009,0.0101 0.0195,0.0217 0.0276,0.0329 z"
         inkscape:connector-curvature="0"
         style="fill:#4d4d4d;stroke-width:0.51975185" />
      <path
         id="path102"
         d="m 545.20962,291.81714 c 0,15.0497 -10.22609,27.24955 -22.84098,27.24955 -12.61489,0 -22.841,-12.19985 -22.841,-27.24955 0,-15.04971 10.22611,-27.24957 22.841,-27.24957 12.61489,0 22.84098,12.19986 22.84098,27.24957 z"
         inkscape:connector-curvature="0"
         style="fill:#4d4d4d;stroke-width:0.51975185" />
      <path
         id="path104"
         d="M 560.43697,446.23131 H 377.70898 v -36.33275 l 53.29566,-108.99824 60.90933,90.83186 h 15.22733 l 53.29567,-54.49912 z"
         inkscape:connector-curvature="0"
         style="fill:#4d4d4d;stroke-width:0.51975185" />
      <g
         id="icomoon-ignore-8"
         transform="matrix(0.73550984,0,0,0.90795135,96.663865,224.6509)" />
      <path
         id="path229"
         transform="matrix(31.676801,0,0,40.119507,101.46102,-134.17378)"
         style="fill:#4d4d4d;stroke-width:0.01120259"
         d="m 10.142578,2.6230469 c -0.02668,2.774e-4 -0.0533,0.00784 -0.08008,0.013672 v 0.070312 0.1582032 0.1386718 0.1425782 0.1621094 0.050781 c 0.545048,-0.00515 1.067673,0.1896278 1.435547,0.6074219 0.368927,0.4189912 0.514428,0.9705461 0.451172,1.5253906 l -1.128907,0.011719 1.335938,1.5175782 1.685547,-1.5488282 -1.179688,0.011719 C 12.746151,4.744561 12.552438,4.0078603 12.060547,3.4492188 11.568659,2.8905813 10.871615,2.6154555 10.142578,2.6230469 Z m -2.1464842,0.90625 c -0.00102,9.788e-4 -0.001,0.00289 -0.00195,0.00391 h 0.00195 c -1.579e-4,-0.00128 1.578e-4,-0.00262 0,-0.00391 z M 7.5039062,5.484375 c -0.00776,0.032612 -0.0083,0.063225 -0.013672,0.09375 v 0.00195 0.03125 c 5.493e-4,0.00327 0.00141,0.0065 0.00195,0.00977 0.00347,0.02074 0.0056,0.041627 0.00781,0.0625 l 0.056641,-0.00391 c -0.00709,-0.02214 -0.015297,-0.043929 -0.021484,-0.066406 -0.010857,-0.039441 -0.021399,-0.084684 -0.03125,-0.1289062 z" />
      <g
         id="icomoon-ignore-7"
         transform="matrix(0.47086959,0,0,0.52444168,116.38984,-111.87675)" />
      <path
         style="fill:#4d4d4d;stroke-width:0.49693424"
         inkscape:connector-curvature="0"
         d="m 325.76719,-48.928781 c 0,13.902949 -10.11899,25.173201 -22.60174,25.173201 -12.48276,0 -22.60174,-11.270252 -22.60174,-25.173201 0,-13.902948 10.11898,-25.1732 22.60174,-25.1732 12.48275,0 22.60174,11.270252 22.60174,25.1732 z"
         id="path182" />
      <path
         style="fill:#4d4d4d;stroke-width:0.49693424"
         inkscape:connector-curvature="0"
         d="m 355.87553,-90.884115 c 0.009,0.0089 0.0193,0.01993 0.0273,0.03042 V 110.4716 c -0.008,0.0105 -0.0179,0.0215 -0.0273,0.0304 H 144.9801 c -0.009,-0.009 -0.0193,-0.0199 -0.0268,-0.0304 V -90.854222 c 0.008,-0.01049 0.0179,-0.0215 0.0268,-0.02989 z m 0.0273,-16.782135 H 144.95326 c -8.2873,0 -15.06782,7.55196 -15.06782,16.782135 V 110.50149 c 0,9.23017 6.78052,16.78213 15.06782,16.78213 h 210.94958 c 8.28731,0 15.06783,-7.55196 15.06783,-16.78213 V -90.884115 c 0,-9.230175 -6.78052,-16.782135 -15.06783,-16.782135 z"
         id="path180" />
      <path
         style="fill:#4d4d4d;stroke-width:0.49693424"
         inkscape:connector-curvature="0"
         d="M 340.83501,93.719356 H 160.02109 V 60.155089 l 52.7374,-100.692803 60.2713,83.910669 h 15.06783 l 52.73739,-50.3464014 z"
         id="path184" />
    </g>
  </g>
</svg>
