<?xml version="1.0" encoding="UTF-8" standalone="no"?>
<!-- Created with Inkscape (http://www.inkscape.org/) -->

<svg
   xmlns:dc="http://purl.org/dc/elements/1.1/"
   xmlns:cc="http://creativecommons.org/ns#"
   xmlns:rdf="http://www.w3.org/1999/02/22-rdf-syntax-ns#"
   xmlns:svg="http://www.w3.org/2000/svg"
   xmlns="http://www.w3.org/2000/svg"
   xmlns:sodipodi="http://sodipodi.sourceforge.net/DTD/sodipodi-0.dtd"
   xmlns:inkscape="http://www.inkscape.org/namespaces/inkscape"
   width="24"
   height="24"
   viewBox="0 0 6.3499998 6.3500001"
   version="1.1"
   id="svg126"
   inkscape:version="0.92.3 (2405546, 2018-03-11)"
   sodipodi:docname="OverlayImage_Tool.svg"
   inkscape:export-filename="G:\DEVELOPMENT\MAIN_DEVELOPMENT\MAIN\lib\data\icons\OverlayImage_Icon.png"
   inkscape:export-xdpi="96.000008"
   inkscape:export-ydpi="96.000008">
  <defs
     id="defs120" />
  <sodipodi:namedview
     id="base"
     pagecolor="#ffffff"
     bordercolor="#666666"
     borderopacity="1.0"
     inkscape:pageopacity="0.0"
     inkscape:pageshadow="2"
     inkscape:zoom="31.678384"
     inkscape:cx="8.9597803"
     inkscape:cy="11.580454"
     inkscape:document-units="mm"
     inkscape:current-layer="g166"
     showgrid="false"
     units="px"
     inkscape:window-width="1920"
     inkscape:window-height="1030"
     inkscape:window-x="-8"
     inkscape:window-y="-8"
     inkscape:window-maximized="1" />
  <metadata
     id="metadata123">
    <rdf:RDF>
      <cc:Work
         rdf:about="">
        <dc:format>image/svg+xml</dc:format>
        <dc:type
           rdf:resource="http://purl.org/dc/dcmitype/StillImage" />
        <dc:title></dc:title>
      </cc:Work>
    </rdf:RDF>
  </metadata>
  <g
     inkscape:label="Layer 1"
     inkscape:groupmode="layer"
     id="layer1"
     transform="translate(0,-290.64998)">
    <g
       id="g166"
       transform="matrix(0.26458333,0,0,0.26458333,-323.69158,117.54799)">
      <g
         id="icomoon-ignore" />
      <path
         id="path148"
         d="m 1243.2061,659.30697 h -1.1365 v -1.00282 c 0,-0.55157 -0.5117,-1.00285 -1.1368,-1.00285 h -15.9132 c -0.6253,0 -1.1368,0.45128 -1.1368,1.00285 v 12.03396 c 0,0.55156 0.5115,1.00282 1.1368,1.00282 h 1.1366 v 1.00286 c 0,0.55153 0.5115,1.0028 1.1365,1.0028 h 15.9134 c 0.6252,0 1.1367,-0.45127 1.1367,-1.0028 v -12.03401 c 0,-0.55156 -0.5115,-1.00281 -1.1367,-1.00281 z m -17.0499,1.00281 v 10.02833 h -1.1349 c 0,-4.2e-4 0,-8.4e-4 0,-10e-4 v -12.03036 c 0,-6.5e-4 0,-8.6e-4 0,-10e-4 h 15.9096 c 0,4.5e-4 0,8.6e-4 0,10e-4 v 1.001 h -13.6402 c -0.6248,0 -1.1367,0.45127 -1.1367,1.00283 z m 17.0499,12.03217 c 0,6.4e-4 0,8.6e-4 0,10e-4 h -15.9093 c 0,-4.4e-4 0,-8.6e-4 0,-10e-4 v -12.03038 c 0,-6.3e-4 0,-8.4e-4 0,-10e-4 h 15.9093 c 0,4.2e-4 0,8.4e-4 0,10e-4 z"
         inkscape:connector-curvature="0"
         style="fill:#333333;stroke-width:0.03336424" />
      <g
         id="g211"
         transform="matrix(0.07745166,-0.22672528,-0.25802089,-0.08814256,1267.4523,761.55738)">
        <g
           id="icomoon-ignore-8" />
      </g>
      <g
         id="g251"
         transform="matrix(0.0467951,0,0,0.02954756,1234.7979,671.63081)">
        <g
           id="icomoon-ignore-3" />
        <path
           id="path233"
           d="m 239.20926,-144.80043 c 0.0117,0.0126 0.024,0.0281 0.034,0.0428 v 283.43585 c -0.01,0.0148 -0.0222,0.0303 -0.034,0.0428 H -22.920342 c -0.0117,-0.0125 -0.024,-0.0281 -0.0334,-0.0428 v -283.43656 c 0.01,-0.0148 0.0222,-0.0303 0.0334,-0.0421 z m 0.034,-23.62673 H -22.953702 c -10.30059,0 -18.72835,10.63203 -18.72835,23.62673 v 283.52075 c 0,12.9947 8.42776,23.62673 18.72835,23.62673 H 239.24321 c 10.30059,0 18.72835,-10.63203 18.72835,-23.62673 v -283.52075 c 0,-12.9947 -8.42776,-23.62673 -18.72835,-23.62673 z"
           inkscape:connector-curvature="0"
           style="fill:#808080;stroke-width:0.65735745" />
      </g>
    </g>
  </g>
</svg>
