<?xml version="1.0" encoding="UTF-8" standalone="no"?>
<svg
   xmlns:dc="http://purl.org/dc/elements/1.1/"
   xmlns:cc="http://creativecommons.org/ns#"
   xmlns:rdf="http://www.w3.org/1999/02/22-rdf-syntax-ns#"
   xmlns:svg="http://www.w3.org/2000/svg"
   xmlns="http://www.w3.org/2000/svg"
   xmlns:sodipodi="http://sodipodi.sourceforge.net/DTD/sodipodi-0.dtd"
   xmlns:inkscape="http://www.inkscape.org/namespaces/inkscape"
   width="16"
   height="16"
   viewBox="0 0 16 16"
   version="1.1"
   id="svg3828"
   sodipodi:docname="Print_Image.svg"
   inkscape:version="0.92.3 (2405546, 2018-03-11)">
  <metadata
     id="metadata3832">
    <rdf:RDF>
      <cc:Work
         rdf:about="">
        <dc:format>image/svg+xml</dc:format>
        <dc:type
           rdf:resource="http://purl.org/dc/dcmitype/StillImage" />
        <dc:title>printer [#1598]</dc:title>
      </cc:Work>
    </rdf:RDF>
  </metadata>
  <sodipodi:namedview
     pagecolor="#ffffff"
     bordercolor="#666666"
     borderopacity="1"
     objecttolerance="10"
     gridtolerance="10"
     guidetolerance="10"
     inkscape:pageopacity="0"
     inkscape:pageshadow="2"
     inkscape:window-width="1920"
     inkscape:window-height="1030"
     id="namedview3830"
     showgrid="false"
     inkscape:zoom="23.6"
     inkscape:cx="13.220284"
     inkscape:cy="10.206019"
     inkscape:window-x="-8"
     inkscape:window-y="-8"
     inkscape:window-maximized="1"
     inkscape:current-layer="icons" />
  <!-- Generator: Sketch 3.8.1 (29687) - http://www.bohemiancoding.com/sketch -->
  <title
     id="title3818">printer [#1598]</title>
  <desc
     id="desc3820">Created with Sketch.</desc>
  <defs
     id="defs3822" />
  <g
     id="Page-1"
     transform="matrix(0.92809084,0,0,0.93707948,1.6179562,-3.2809083)"
     style="fill:none;fill-rule:evenodd;stroke:none;stroke-width:1">
    <g
       id="Dribbble-Light-Preview"
       transform="translate(-180,-1919)"
       style="fill:#000000">
      <g
         id="icons"
         transform="matrix(0.76432941,0,0,0.75380043,84.448345,597.60535)">
        <path
           d="m 133.18445,1768.7904 c 0,0.5935 -0.48679,1.075 -1.08662,1.075 -0.5998,0 -1.0866,-0.4815 -1.0866,-1.075 0,-0.5933 0.4868,-1.075 1.0866,-1.075 0.59983,0 1.08662,0.4817 1.08662,1.075 z m -4.34646,0 c 0,0.5935 -0.4868,1.075 -1.0866,1.075 -0.59982,0 -1.08662,-0.4815 -1.08662,-1.075 0,-0.5933 0.4868,-1.075 1.08662,-1.075 0.5998,0 1.0866,0.4817 1.0866,1.075 z m 13.94452,6.092 c 0,0.2967 -0.2434,0.5375 -0.54332,0.5375 h -0.54329 v -4.3 h -15.21259 v 4.3 h -0.54332 c -0.29989,0 -0.54329,-0.2408 -0.54329,-0.5375 v -6.9875 c 0,-0.5932 0.48679,-1.0749 1.08661,-1.0749 h 15.21259 c 0.60089,0 1.08661,0.4817 1.08661,1.0749 z m -3.25984,1.6125 c 0,0.5933 -0.48572,1.075 -1.08661,1.075 h -8.69291 c -0.59982,0 -1.08661,-0.4817 -1.08661,-1.075 v -3.225 h 10.86613 z m -11.95276,-15.0497 c 0,-0.5935 0.48681,-1.075 1.08663,-1.075 h 10.86613 c 0.60089,0 1.0866,0.4815 1.0866,1.075 v 3.225 h -13.03936 z m 15.2126,3.225 v -4.3 c 0,-1.1879 -0.97252,-2.15 -2.17324,-2.15 h -13.03936 c -1.19961,0 -2.17321,0.9621 -2.17321,2.15 v 4.3 c -1.19963,0 -2.17323,0.9621 -2.17323,2.1498 v 8.5999 c 0,1.1868 0.9736,2.15 2.17323,2.15 h 1.08661 c 0,1.1868 0.97361,2.1499 2.17323,2.1499 h 10.86613 c 1.20071,0 2.17323,-0.9631 2.17323,-2.1499 h 1.08661 c 1.20071,0 2.17323,-0.9632 2.17323,-2.15 v -8.5999 c 0,-1.1877 -0.97252,-2.1498 -2.17323,-2.1498 z"
           id="printer-[#1598]"
           inkscape:connector-curvature="0"
           style="stroke-width:1.08078289" />
      </g>
    </g>
  </g>
</svg>
