<?xml version="1.0" encoding="UTF-8" standalone="no"?>
<!-- Created with Inkscape (http://www.inkscape.org/) -->

<svg
   xmlns:dc="http://purl.org/dc/elements/1.1/"
   xmlns:cc="http://creativecommons.org/ns#"
   xmlns:rdf="http://www.w3.org/1999/02/22-rdf-syntax-ns#"
   xmlns:svg="http://www.w3.org/2000/svg"
   xmlns="http://www.w3.org/2000/svg"
   xmlns:sodipodi="http://sodipodi.sourceforge.net/DTD/sodipodi-0.dtd"
   xmlns:inkscape="http://www.inkscape.org/namespaces/inkscape"
   width="16"
   height="16"
   viewBox="0 0 4.2333332 4.2333335"
   version="1.1"
   id="svg8"
   inkscape:export-filename="F:\DEVELOPMENT\Image Texture Editor 1.1x series\MAIN\lib\icons\menu_icons\Reset.png"
   inkscape:export-xdpi="96"
   inkscape:export-ydpi="96"
   inkscape:version="0.92.3 (2405546, 2018-03-11)"
   sodipodi:docname="Reset.svg">
  <defs
     id="defs2" />
  <sodipodi:namedview
     id="base"
     pagecolor="#ffffff"
     bordercolor="#666666"
     borderopacity="1.0"
     inkscape:pageopacity="0.0"
     inkscape:pageshadow="2"
     inkscape:zoom="31.678384"
     inkscape:cx="5.914979"
     inkscape:cy="6.7973107"
     inkscape:document-units="mm"
     inkscape:current-layer="layer1"
     showgrid="false"
     units="px"
     inkscape:window-width="1920"
     inkscape:window-height="1030"
     inkscape:window-x="-8"
     inkscape:window-y="-8"
     inkscape:window-maximized="1" />
  <metadata
     id="metadata5">
    <rdf:RDF>
      <cc:Work
         rdf:about="">
        <dc:format>image/svg+xml</dc:format>
        <dc:type
           rdf:resource="http://purl.org/dc/dcmitype/StillImage" />
        <dc:title></dc:title>
      </cc:Work>
    </rdf:RDF>
  </metadata>
  <g
     inkscape:label="Layer 1"
     inkscape:groupmode="layer"
     id="layer1"
     transform="translate(0,-292.76665)">
    <g
       id="g5036"
       transform="matrix(0.00579648,0,0,0.00613904,1.1549092,293.13966)"
       style="fill:#808080">
      <g
         id="icomoon-ignore"
         style="fill:#808080" />
      <path
         id="path5024"
         d="M 448,0 H 0 V 512 H 512 V 64 Z M 256,64 h 64 V 192 H 256 Z M 448,448 H 64 V 64 H 96 V 224 H 384 V 64 h 37.489 L 448,90.509 Z"
         inkscape:connector-curvature="0"
         style="fill:#808080" />
    </g>
    <g
       id="g5301"
       transform="matrix(0.00491154,0.00361067,-0.00451253,0.00436857,1.0858525,293.23515)"
       style="fill:#4d4d4d">
      <g
         id="icomoon-ignore-9"
         style="fill:#4d4d4d" />
      <path
         id="path5289"
         d="M 256,32 C 185.308,32 121.312,60.66 74.984,106.989 L 0,32 V 224 H 192 L 120.234,152.239 C 154.982,117.493 202.98,96 256,96 c 106.034,0 192,85.962 192,192 0,57.348 -25.146,108.818 -65.009,144 l 42.333,48 C 478.475,433.092 512,364.462 512,288 512,146.615 397.385,32 256,32 Z"
         inkscape:connector-curvature="0"
         style="fill:#4d4d4d" />
    </g>
  </g>
</svg>
