<?xml version="1.0" encoding="UTF-8" standalone="no"?>
<svg
   xmlns:dc="http://purl.org/dc/elements/1.1/"
   xmlns:cc="http://creativecommons.org/ns#"
   xmlns:rdf="http://www.w3.org/1999/02/22-rdf-syntax-ns#"
   xmlns:svg="http://www.w3.org/2000/svg"
   xmlns="http://www.w3.org/2000/svg"
   xmlns:sodipodi="http://sodipodi.sourceforge.net/DTD/sodipodi-0.dtd"
   xmlns:inkscape="http://www.inkscape.org/namespaces/inkscape"
   width="16"
   height="16"
   viewBox="0 0 16 16"
   version="1.1"
   id="svg10086"
   sodipodi:docname="Resize_Tool.svg"
   inkscape:version="0.92.3 (2405546, 2018-03-11)"
   inkscape:export-filename="G:\DEVELOPMENT\MAIN_DEVELOPMENT\MAIN\lib\data\icons\menu_icons\Resize.png"
   inkscape:export-xdpi="96"
   inkscape:export-ydpi="96">
  <metadata
     id="metadata10090">
    <rdf:RDF>
      <cc:Work
         rdf:about="">
        <dc:format>image/svg+xml</dc:format>
        <dc:type
           rdf:resource="http://purl.org/dc/dcmitype/StillImage" />
        <dc:title>resize [#903]</dc:title>
      </cc:Work>
    </rdf:RDF>
  </metadata>
  <sodipodi:namedview
     pagecolor="#ffffff"
     bordercolor="#666666"
     borderopacity="1"
     objecttolerance="10"
     gridtolerance="10"
     guidetolerance="10"
     inkscape:pageopacity="0"
     inkscape:pageshadow="2"
     inkscape:window-width="1920"
     inkscape:window-height="1030"
     id="namedview10088"
     showgrid="false"
     inkscape:zoom="52.444444"
     inkscape:cx="8.3172559"
     inkscape:cy="8.1605801"
     inkscape:window-x="-8"
     inkscape:window-y="-8"
     inkscape:window-maximized="1"
     inkscape:current-layer="svg10086" />
  <!-- Generator: Sketch 3.8.1 (29687) - http://www.bohemiancoding.com/sketch -->
  <title
     id="title10076">resize [#903]</title>
  <desc
     id="desc10078">Created with Sketch.</desc>
  <defs
     id="defs10080">
    <symbol
       id="LeftAndDownArrow">
      <title
         id="title11485">Left and Down Arrow</title>
      <path
         d="m 16.125,55.875 v -32 l 11,-11 v 24 l 23,-23 8,8 -23,23 h 24 l -11,11 z"
         style="stroke:none"
         id="path11487"
         inkscape:connector-curvature="0" />
    </symbol>
  </defs>
  <g
     id="g15004"
     transform="matrix(0.02863324,0,0,0.02546259,0.62235317,1.4233947)"
     style="fill:#4d4d4d">
    <g
       id="icomoon-ignore"
       style="fill:#4d4d4d" />
    <path
       id="path14986"
       d="m 479.942,64 c 0.02,0.017 0.041,0.038 0.058,0.058 v 383.885 c -0.017,0.02 -0.038,0.041 -0.058,0.058 H 32.057 C 32.037,447.984 32.016,447.963 32,447.943 V 64.057 C 32.017,64.037 32.038,64.016 32.057,64 Z M 480,32 H 32 C 14.4,32 0,46.4 0,64 v 384 c 0,17.6 14.4,32 32,32 h 448 c 17.6,0 32,-14.4 32,-32 V 64 C 512,46.4 497.6,32 480,32 Z"
       inkscape:connector-curvature="0"
       style="fill:#4d4d4d" />
    <path
       id="path14988"
       d="m 416,144 c 0,26.51 -21.49,48 -48,48 -26.51,0 -48,-21.49 -48,-48 0,-26.51 21.49,-48 48,-48 26.51,0 48,21.49 48,48 z"
       inkscape:connector-curvature="0"
       style="fill:#4d4d4d" />
    <path
       id="path14990"
       d="M 448,416 H 64 V 352 L 176,160 304,320 h 32 l 112,-96 z"
       inkscape:connector-curvature="0"
       style="fill:#4d4d4d" />
  </g>
  <rect
     style="fill:#ffffff;stroke:none;stroke-width:0.98853052"
     id="rect371"
     width="13.348139"
     height="10.139192"
     x="1.294365"
     y="2.8945549" />
  <g
     id="Page-1-5"
     style="fill:#4d4d4d;fill-rule:evenodd;stroke:none;stroke-width:1"
     transform="matrix(0.34130473,0,0,0.24771192,1.7722711,7.5570176)">
    <g
       transform="translate(-220,-3879)"
       id="Dribbble-Light-Preview-0"
       style="fill:#4d4d4d">
      <g
         transform="translate(56,160)"
         id="icons-3"
         style="fill:#4d4d4d">
        <path
           id="focus-[#976]"
           d="m 182,3733 h 2 v -8 h -2 z m 0,4 h -2 v 2 h 4 v -4 h -2 z m -2,-18 v 2 h 2 v 2 h 2 v -4 z m -16,14 h 2 v -8 h -2 z m 2,2 h -2 v 4 h 4 v -2 h -2 z m -2,-12 h 2 v -2 h 2 v -2 h -4 z m 6,16 h 8 v -2 h -8 z m 0,-18 h 8 v -2 h -8 z"
           inkscape:connector-curvature="0"
           style="fill:#4d4d4d" />
      </g>
    </g>
  </g>
  <path
     style="fill:#ffffff;stroke-width:0.43142328"
     d="M 1.928285,7.7310938 V 12.242216 H 8.4074602 V 7.7310938 Z"
     id="rect15006"
     inkscape:connector-curvature="0" />
  <g
     id="Page-1"
     style="fill:#333333;fill-rule:evenodd;stroke:none;stroke-width:1"
     transform="matrix(0.0248113,-0.25300973,0.25700086,0.02532358,8.9040608,7.5494518)">
    <g
       transform="translate(-420,-6599)"
       id="Dribbble-Light-Preview"
       style="fill:#333333">
      <g
         transform="translate(56,160)"
         id="icons"
         style="fill:#333333">
        <polygon
           points="366.0013,6453.123 366.0013,6442.366 382.6071,6459 384,6457.607 367.33817,6441 378.00911,6441 378.00911,6439 364,6439 364,6453.093 "
           id="arrow_left_up-[#353]"
           style="fill:#333333" />
      </g>
    </g>
  </g>
</svg>
