<?xml version="1.0" encoding="UTF-8" standalone="no"?>
<svg
   xmlns:dc="http://purl.org/dc/elements/1.1/"
   xmlns:cc="http://creativecommons.org/ns#"
   xmlns:rdf="http://www.w3.org/1999/02/22-rdf-syntax-ns#"
   xmlns:svg="http://www.w3.org/2000/svg"
   xmlns="http://www.w3.org/2000/svg"
   xmlns:sodipodi="http://sodipodi.sourceforge.net/DTD/sodipodi-0.dtd"
   xmlns:inkscape="http://www.inkscape.org/namespaces/inkscape"
   width="16"
   height="16"
   viewBox="0 0 16 16"
   version="1.1"
   id="svg5064"
   sodipodi:docname="Rotate_Tool.svg"
   inkscape:version="0.92.3 (2405546, 2018-03-11)"
   inkscape:export-filename="F:\DEVELOPMENT\MAIN_DEVELOPMENT\MAIN\lib\data\icons\menu_icons\Rotate_90_CounterClockwise.png"
   inkscape:export-xdpi="96"
   inkscape:export-ydpi="96">
  <metadata
     id="metadata5068">
    <rdf:RDF>
      <cc:Work
         rdf:about="">
        <dc:format>image/svg+xml</dc:format>
        <dc:type
           rdf:resource="http://purl.org/dc/dcmitype/StillImage" />
        <dc:title></dc:title>
      </cc:Work>
    </rdf:RDF>
  </metadata>
  <sodipodi:namedview
     pagecolor="#ffffff"
     bordercolor="#666666"
     borderopacity="1"
     objecttolerance="10"
     gridtolerance="10"
     guidetolerance="10"
     inkscape:pageopacity="0"
     inkscape:pageshadow="2"
     inkscape:window-width="1920"
     inkscape:window-height="1030"
     id="namedview5066"
     showgrid="false"
     inkscape:zoom="33.37544"
     inkscape:cx="6.6974103"
     inkscape:cy="9.0557511"
     inkscape:window-x="-8"
     inkscape:window-y="-8"
     inkscape:window-maximized="1"
     inkscape:current-layer="svg5064" />
  <!-- Generator: Sketch 3.8.1 (29687) - http://www.bohemiancoding.com/sketch -->
  <desc
     id="desc5056">Created with Sketch.</desc>
  <rect
     style="fill:#ffffff;stroke-width:1.13163674"
     id="rect11172-2"
     width="8.3294783"
     height="5.9624686"
     x="6.9778919"
     y="9.2140131"
     transform="matrix(0,1,1,0,0,0)" />
  <defs
     id="defs5058" />
  <g
     id="Page-1-1"
     style="fill:#4d4d4d;fill-rule:evenodd;stroke:none;stroke-width:1"
     transform="matrix(0.58273457,-0.01792037,-0.01613326,-0.54792747,1.120283,12.369741)">
    <g
       transform="translate(-342,-7080)"
       id="Dribbble-Light-Preview-3"
       style="fill:#4d4d4d">
      <g
         transform="translate(56,160)"
         id="icons-2"
         style="fill:#4d4d4d">
        <path
           id="arrow_repeat-[#235]"
           d="m 300.00292,6930.8589 c -0.4788,3.309 -3.67785,5.754 -7.25834,5.005 -2.27356,-0.476 -4.12152,-2.307 -4.59932,-4.571 -0.81607,-3.8709 1.86202,-7.2929 5.87714,-7.2929 v 2 l 5.0189,-3 -5.0189,-3 v 2 c -5.01891,0 -8.86238,4.483 -7.86362,9.6049 0.60829,3.119 3.13581,5.633 6.2666,6.239 4.74487,0.918 8.94469,-2.328 9.56503,-6.718 0.0843,-0.596 -0.39851,-1.1259 -1.00178,-1.1259 h 10e-4 c -0.49888,0 -0.91545,0.3669 -0.98672,0.8589"
           inkscape:connector-curvature="0"
           style="fill:#4d4d4d" />
      </g>
    </g>
  </g>
  <rect
     style="fill:#ffffff;stroke-width:1.14705741"
     id="rect11172"
     width="8.689024"
     height="5.872582"
     x="-15.20832"
     y="0.76157957"
     transform="scale(-1,1)" />
  <g
     id="Page-1-8"
     style="fill:#4d4d4d;fill-rule:evenodd;stroke:none;stroke-width:1"
     transform="matrix(-0.43285383,0,0,0.37088978,15.176372,0.76157959)">
    <g
       transform="translate(-420,-3881)"
       id="Dribbble-Light-Preview-2"
       style="fill:#4d4d4d">
      <g
         transform="translate(56,160)"
         id="icons-4"
         style="fill:#4d4d4d">
        <path
           id="image_picture-[#971]"
           d="m 376.083,3725.667 c 0,-1.105 0.895,-2 2,-2 1.105,0 2,0.895 2,2 0,1.105 -0.895,2 -2,2 -1.105,0 -2,-0.895 -2,-2 z m 5.917,7.419 -4.013,-4.012 -0.016,0.015 -0.016,-0.015 -1.43,1.43 -4.629,-4.628 -0.015,0.016 -0.016,-0.016 -5.865,5.865 V 3723 h 16 z M 364,3737 h 20 v -16 h -20 z"
           inkscape:connector-curvature="0"
           style="fill:#4d4d4d" />
      </g>
    </g>
  </g>
  <g
     id="Page-1-8-7"
     style="fill:#4d4d4d;fill-rule:evenodd;stroke:none;stroke-width:1"
     transform="matrix(0,0.41893979,0.38320796,0,9.0451544,6.9778918)">
    <g
       transform="translate(-420,-3881)"
       id="Dribbble-Light-Preview-2-2"
       style="fill:#4d4d4d">
      <g
         transform="translate(56,160)"
         id="icons-4-6"
         style="fill:#4d4d4d">
        <path
           id="image_picture-[#971]-2"
           d="m 376.083,3725.667 c 0,-1.105 0.895,-2 2,-2 1.105,0 2,0.895 2,2 0,1.105 -0.895,2 -2,2 -1.105,0 -2,-0.895 -2,-2 z m 5.917,7.419 -4.013,-4.012 -0.016,0.015 -0.016,-0.015 -1.43,1.43 -4.629,-4.628 -0.015,0.016 -0.016,-0.016 -5.865,5.865 V 3723 h 16 z M 364,3737 h 20 v -16 h -20 z"
           inkscape:connector-curvature="0"
           style="fill:#4d4d4d" />
      </g>
    </g>
  </g>
</svg>
