<?xml version="1.0" encoding="UTF-8" standalone="no"?>
<!-- Created with Inkscape (http://www.inkscape.org/) -->

<svg
   xmlns:dc="http://purl.org/dc/elements/1.1/"
   xmlns:cc="http://creativecommons.org/ns#"
   xmlns:rdf="http://www.w3.org/1999/02/22-rdf-syntax-ns#"
   xmlns:svg="http://www.w3.org/2000/svg"
   xmlns="http://www.w3.org/2000/svg"
   xmlns:sodipodi="http://sodipodi.sourceforge.net/DTD/sodipodi-0.dtd"
   xmlns:inkscape="http://www.inkscape.org/namespaces/inkscape"
   width="16"
   height="16"
   viewBox="0 0 4.2333332 4.2333335"
   version="1.1"
   id="svg8"
   inkscape:export-filename="F:\DEVELOPMENT\Image Texture Editor 1.1x series\MAIN\lib\icons\menu_icons\Save_Image_As.png"
   inkscape:export-xdpi="96"
   inkscape:export-ydpi="96"
   inkscape:version="0.92.3 (2405546, 2018-03-11)"
   sodipodi:docname="SaveImageAs.svg">
  <defs
     id="defs2" />
  <sodipodi:namedview
     id="base"
     pagecolor="#ffffff"
     bordercolor="#666666"
     borderopacity="1.0"
     inkscape:pageopacity="0.0"
     inkscape:pageshadow="2"
     inkscape:zoom="22.4"
     inkscape:cx="8.1243236"
     inkscape:cy="9.7359308"
     inkscape:document-units="mm"
     inkscape:current-layer="layer1"
     showgrid="false"
     units="px"
     inkscape:window-width="1920"
     inkscape:window-height="1030"
     inkscape:window-x="-8"
     inkscape:window-y="-8"
     inkscape:window-maximized="1" />
  <metadata
     id="metadata5">
    <rdf:RDF>
      <cc:Work
         rdf:about="">
        <dc:format>image/svg+xml</dc:format>
        <dc:type
           rdf:resource="http://purl.org/dc/dcmitype/StillImage" />
        <dc:title></dc:title>
      </cc:Work>
    </rdf:RDF>
  </metadata>
  <g
     inkscape:label="Layer 1"
     inkscape:groupmode="layer"
     id="layer1"
     transform="translate(0,-292.76665)">
    <g
       id="g38"
       transform="matrix(0.00672729,0,0,0.00696366,0.1638738,293.11497)"
       style="fill:#4d4d4d">
      <g
         id="icomoon-ignore"
         style="fill:#4d4d4d" />
      <path
         id="path26"
         d="M 448,0 H 0 V 512 H 512 V 64 Z M 256,64 h 64 V 192 H 256 Z M 448,448 H 64 V 64 H 96 V 224 H 384 V 64 h 37.489 L 448,90.509 Z"
         inkscape:connector-curvature="0"
         style="fill:#4d4d4d" />
    </g>
    <g
       id="g68"
       transform="matrix(0.00398646,0,0,0.00435558,1.8860956,293.56064)"
       style="fill:#333333">
      <g
         id="icomoon-ignore-7"
         style="fill:#333333" />
      <path
         id="path56"
         d="m 432,0 c 44.182,0 80,35.817 80,80 0,18.01 -5.955,34.629 -16,48 L 464,160 352,48 384,16 C 397.371,5.955 413.989,0 432,0 Z M 32,368 0,512 144,480 440,184 328,72 Z m 325.789,-186.211 -224,224 -27.578,-27.578 224,-224 z"
         inkscape:connector-curvature="0"
         style="fill:#333333" />
    </g>
  </g>
</svg>
