<?xml version="1.0" encoding="UTF-8" standalone="no"?>
<svg
   xmlns:dc="http://purl.org/dc/elements/1.1/"
   xmlns:cc="http://creativecommons.org/ns#"
   xmlns:rdf="http://www.w3.org/1999/02/22-rdf-syntax-ns#"
   xmlns:svg="http://www.w3.org/2000/svg"
   xmlns="http://www.w3.org/2000/svg"
   xmlns:sodipodi="http://sodipodi.sourceforge.net/DTD/sodipodi-0.dtd"
   xmlns:inkscape="http://www.inkscape.org/namespaces/inkscape"
   width="16"
   height="16"
   viewBox="0 0 16 16"
   version="1.1"
   id="svg1105"
   sodipodi:docname="SaveBMP_Copy.svg"
   inkscape:version="0.92.3 (2405546, 2018-03-11)">
  <metadata
     id="metadata1109">
    <rdf:RDF>
      <cc:Work
         rdf:about="">
        <dc:format>image/svg+xml</dc:format>
        <dc:type
           rdf:resource="http://purl.org/dc/dcmitype/StillImage" />
        <dc:title>camera [#936]</dc:title>
      </cc:Work>
    </rdf:RDF>
  </metadata>
  <sodipodi:namedview
     pagecolor="#ffffff"
     bordercolor="#666666"
     borderopacity="1"
     objecttolerance="10"
     gridtolerance="10"
     guidetolerance="10"
     inkscape:pageopacity="0"
     inkscape:pageshadow="2"
     inkscape:window-width="1920"
     inkscape:window-height="1030"
     id="namedview1107"
     showgrid="false"
     inkscape:zoom="16.68772"
     inkscape:cx="10.66977"
     inkscape:cy="6.0832718"
     inkscape:window-x="-8"
     inkscape:window-y="-8"
     inkscape:window-maximized="1"
     inkscape:current-layer="Page-1" />
  <!-- Generator: Sketch 3.8.1 (29687) - http://www.bohemiancoding.com/sketch -->
  <title
     id="title1095">camera [#936]</title>
  <desc
     id="desc1097">Created with Sketch.</desc>
  <defs
     id="defs1099" />
  <g
     id="Page-1"
     transform="matrix(0.83474576,0,0,0.82627119,1.8571368,-3.6409708)"
     style="fill:none;fill-rule:evenodd;stroke:none;stroke-width:1">
    <g
       id="Dribbble-Light-Preview"
       transform="matrix(0.60028842,0,0,0.5525105,-130.31486,-2226.8758)"
       style="fill:#4d4d4d">
      <g
         id="icons"
         transform="translate(56,160)"
         style="fill:#4d4d4d">
        <path
           d="m 174.11,3888.599 c 1.103,0 2,0.897 2,2 0,1.103 -0.897,2 -2,2 -1.103,0 -2,-0.897 -2,-2 0,-1.103 0.897,-2 2,-2 z m 0,6 c 2.209,0 4,-1.791 4,-4 0,-2.209 -1.791,-4 -4,-4 -2.209,0 -4,1.791 -4,4 0,2.209 1.791,4 4,4 z M 181,3897 h -14 c -0.552,0 -1,-0.448 -1,-1 v -10 c 0,-0.552 0.448,-1 1,-1 h 14 c 0.552,0 1,0.448 1,1 v 10 c 0,0.552 -0.448,1 -1,1 z m -9,-16 h 4 c 0.552,0 1,0.448 1,1 v 1 h -6 v -1 c 0,-0.552 0.448,-1 1,-1 z m 11,2 v -1 c 0,-0.552 -0.448,-1 -1,-1 -0.552,0 -1,0.448 -1,1 v 1 h -2 v -2 c 0,-1.104 -0.896,-2 -2,-2 h -6 c -1.105,0 -2,0.896 -2,2 v 2 h -3 c -1.105,0 -2,0.896 -2,2 v 12 c 0,1.105 0.895,2 2,2 h 16 c 1.104,0 2,-0.895 2,-2 v -14 z"
           id="camera-[#936]"
           inkscape:connector-curvature="0"
           style="fill:#4d4d4d" />
      </g>
    </g>
    <flowRoot
       xml:space="preserve"
       id="flowRoot1119"
       style="font-style:normal;font-weight:normal;font-size:40px;line-height:1.25;font-family:sans-serif;letter-spacing:0px;word-spacing:0px;fill:#000000;fill-opacity:1;stroke:none"
       transform="matrix(1.1979695,0,0,1.2102564,-2.2247933,-0.43451741)"><flowRegion
         id="flowRegion1121"><rect
           id="rect1123"
           width="112.53784"
           height="70.351135"
           x="-29.243059"
           y="0.10513125" /></flowRegion><flowPara
         id="flowPara1125"></flowPara></flowRoot>    <flowRoot
       xml:space="preserve"
       id="flowRoot1131"
       style="font-style:normal;font-variant:normal;font-weight:bold;font-stretch:normal;font-size:40.00001144px;line-height:1.25;font-family:sans-serif;-inkscape-font-specification:'sans-serif, Bold';font-variant-ligatures:normal;font-variant-caps:normal;font-variant-numeric:normal;font-feature-settings:normal;text-align:start;letter-spacing:0px;word-spacing:0px;writing-mode:lr-tb;text-anchor:start;fill:#4d4d4d;fill-opacity:1;stroke:none"
       transform="matrix(0.18937857,0,0,0.22531883,39.372829,25.890047)"><flowRegion
         id="flowRegion1133"
         style="font-style:normal;font-variant:normal;font-weight:bold;font-stretch:normal;font-size:40.00001144px;font-family:sans-serif;-inkscape-font-specification:'sans-serif, Bold';font-variant-ligatures:normal;font-variant-caps:normal;font-variant-numeric:normal;font-feature-settings:normal;text-align:start;writing-mode:lr-tb;text-anchor:start;fill:#4d4d4d"><rect
           id="rect1135"
           width="419.66101"
           height="176.27118"
           x="-217.96609"
           y="-49.152542"
           style="font-style:normal;font-variant:normal;font-weight:bold;font-stretch:normal;font-size:40.00001144px;font-family:sans-serif;-inkscape-font-specification:'sans-serif, Bold';font-variant-ligatures:normal;font-variant-caps:normal;font-variant-numeric:normal;font-feature-settings:normal;text-align:start;writing-mode:lr-tb;text-anchor:start;fill:#4d4d4d" /></flowRegion><flowPara
         id="flowPara1137">BMP</flowPara></flowRoot>  </g>
</svg>
