<?xml version="1.0" encoding="UTF-8" standalone="no"?>
<!-- Created with Inkscape (http://www.inkscape.org/) -->

<svg
   xmlns:dc="http://purl.org/dc/elements/1.1/"
   xmlns:cc="http://creativecommons.org/ns#"
   xmlns:rdf="http://www.w3.org/1999/02/22-rdf-syntax-ns#"
   xmlns:svg="http://www.w3.org/2000/svg"
   xmlns="http://www.w3.org/2000/svg"
   xmlns:sodipodi="http://sodipodi.sourceforge.net/DTD/sodipodi-0.dtd"
   xmlns:inkscape="http://www.inkscape.org/namespaces/inkscape"
   width="16"
   height="16"
   viewBox="0 0 4.2333332 4.2333335"
   version="1.1"
   id="svg8"
   inkscape:export-filename="F:\PYTHON\DEVELOPMENT PROJECTS\PhotoGraphics Editor 1.1\source\Windows\lib\SWIFT\bitmaps\Search.png"
   inkscape:export-xdpi="96.000008"
   inkscape:export-ydpi="96.000008"
   inkscape:version="0.92.3 (2405546, 2018-03-11)"
   sodipodi:docname="searchicon.svg">
  <defs
     id="defs2" />
  <sodipodi:namedview
     id="base"
     pagecolor="#ffffff"
     bordercolor="#666666"
     borderopacity="1.0"
     inkscape:pageopacity="0.0"
     inkscape:pageshadow="2"
     inkscape:zoom="22.4"
     inkscape:cx="9.8214287"
     inkscape:cy="7.1875005"
     inkscape:document-units="mm"
     inkscape:current-layer="g326"
     showgrid="false"
     units="px"
     inkscape:window-width="1920"
     inkscape:window-height="1023"
     inkscape:window-x="-9"
     inkscape:window-y="-9"
     inkscape:window-maximized="1" />
  <metadata
     id="metadata5">
    <rdf:RDF>
      <cc:Work
         rdf:about="">
        <dc:format>image/svg+xml</dc:format>
        <dc:type
           rdf:resource="http://purl.org/dc/dcmitype/StillImage" />
        <dc:title></dc:title>
      </cc:Work>
    </rdf:RDF>
  </metadata>
  <g
     inkscape:label="Layer 1"
     inkscape:groupmode="layer"
     id="layer1"
     transform="translate(0,-292.76665)">
    <g
       id="g326"
       transform="matrix(0.00735427,0,0,0.00744634,0.20798787,293.00304)">
      <g
         id="icomoon-ignore" />
      <path
         id="path314"
         d="M 496.131,435.698 374.855,332.551 C 362.318,321.268 348.91,316.088 338.079,316.588 366.707,283.054 384,239.549 384,192 384,85.961 298.039,0 192,0 85.961,0 0,85.961 0,192 c 0,106.039 85.961,192 192,192 47.549,0 91.054,-17.293 124.588,-45.922 -0.5,10.831 4.68,24.239 15.963,36.776 L 435.698,496.13 c 17.661,19.623 46.511,21.277 64.11,3.678 17.599,-17.599 15.946,-46.449 -3.677,-64.11 z M 192,320 C 121.308,320 64,262.692 64,192 64,121.308 121.308,64 192,64 c 70.692,0 128,57.308 128,128 0,70.692 -57.307,128 -128,128 z m -32,-96 v 0 0 0 0 0 0 0 0 0 0 z"
         inkscape:connector-curvature="0"
         sodipodi:nodetypes="cccsssscccscsssssccccccccccccc"
         style="fill:#333333" />
    </g>
  </g>
</svg>
